<svg width="190" height="31" viewBox="0 0 190 31" fill="none" xmlns="http://www.w3.org/2000/svg">
<path d="M114.876 1.09921H115.352L117.734 7.04082H117.137L116.42 5.18297H113.801L113.084 7.04082H112.478L114.876 1.09921ZM116.244 4.72477L115.111 1.78777L113.978 4.72477H116.244Z" fill="black"/>
<path d="M119.181 4.02118C119.181 3.65813 119.241 3.30258 119.362 2.95455C119.483 2.60651 119.659 2.28853 119.891 2.00059C120.123 1.71264 120.408 1.4848 120.746 1.31453C121.084 1.14427 121.471 1.05914 121.901 1.05914C122.413 1.05914 122.85 1.17933 123.212 1.4222C123.575 1.66507 123.843 1.97555 124.017 2.35613L123.572 2.64157C123.449 2.37866 123.292 2.17085 123.104 2.01811C122.915 1.86287 122.715 1.75271 122.502 1.6851C122.29 1.6175 122.079 1.58495 121.869 1.58495C121.524 1.58495 121.219 1.65506 120.956 1.79777C120.693 1.94049 120.471 2.13078 120.289 2.36615C120.108 2.60401 119.973 2.86942 119.881 3.16237C119.789 3.45531 119.744 3.75327 119.744 4.05373C119.744 4.38173 119.797 4.69722 119.905 5.00018C120.014 5.30064 120.164 5.56855 120.357 5.79891C120.55 6.02926 120.777 6.21454 121.038 6.35225C121.299 6.48996 121.584 6.55757 121.891 6.55757C122.106 6.55757 122.326 6.51751 122.553 6.43989C122.78 6.36227 122.99 6.24208 123.186 6.07934C123.381 5.91659 123.539 5.70877 123.659 5.45087L124.128 5.70126C124.01 5.99671 123.826 6.24709 123.58 6.45491C123.331 6.66023 123.055 6.81797 122.751 6.92313C122.447 7.02829 122.149 7.08337 121.86 7.08337C121.466 7.08337 121.106 6.99574 120.777 6.82047C120.449 6.6452 120.164 6.40984 119.925 6.11689C119.686 5.82394 119.502 5.49594 119.372 5.13038C119.246 4.76482 119.181 4.39425 119.181 4.02118Z" fill="black"/>
<path d="M125.867 4.02118C125.867 3.65812 125.928 3.30258 126.048 2.95455C126.169 2.60651 126.345 2.28853 126.577 2.00059C126.809 1.71264 127.094 1.4848 127.433 1.31453C127.771 1.14427 128.157 1.05914 128.587 1.05914C129.099 1.05914 129.537 1.17933 129.899 1.4222C130.261 1.66507 130.529 1.97555 130.703 2.35613L130.259 2.64157C130.136 2.37866 129.979 2.17085 129.79 2.01811C129.602 1.86538 129.401 1.75521 129.189 1.68761C128.976 1.62 128.766 1.58745 128.556 1.58745C128.21 1.58745 127.906 1.65756 127.643 1.80028C127.379 1.943 127.157 2.13329 126.976 2.36865C126.795 2.60651 126.66 2.87192 126.568 3.16487C126.476 3.45782 126.43 3.75577 126.43 4.05624C126.43 4.38424 126.483 4.69972 126.592 5.00269C126.701 5.30315 126.85 5.57106 127.044 5.80141C127.237 6.03176 127.464 6.21705 127.725 6.35476C127.986 6.49247 128.271 6.56007 128.578 6.56007C128.793 6.56007 129.012 6.52001 129.239 6.44239C129.467 6.36477 129.677 6.24459 129.872 6.08184C130.068 5.91909 130.225 5.71127 130.346 5.45338L130.814 5.70376C130.696 5.99921 130.512 6.2496 130.266 6.45741C130.017 6.66273 129.742 6.82047 129.438 6.92563C129.133 7.03079 128.836 7.08588 128.546 7.08588C128.152 7.08588 127.792 6.99824 127.464 6.82297C127.135 6.64771 126.85 6.41234 126.611 6.1194C126.372 5.82645 126.188 5.49844 126.058 5.13288C125.93 4.76482 125.867 4.39425 125.867 4.02118Z" fill="black"/>
<path d="M136.847 6.52252V7.04082H132.996V1.09921H136.774V1.61751H133.561V3.76079H136.364V4.25655H133.561V6.52503H136.847V6.52252Z" fill="black"/>
<path d="M139.124 7.04332V1.09921H139.689V6.52252H142.999V7.04082H139.124V7.04332Z" fill="black"/>
<path d="M148.893 6.52252V7.04082H145.043V1.09921H148.821V1.61751H145.608V3.76079H148.41V4.25655H145.608V6.52503H148.893V6.52252Z" fill="black"/>
<path d="M151.171 7.04332V1.09921H153.594C153.84 1.09921 154.067 1.15179 154.273 1.25946C154.478 1.36462 154.657 1.50984 154.809 1.69012C154.963 1.87039 155.082 2.0732 155.164 2.29354C155.248 2.51388 155.29 2.73923 155.29 2.96707C155.29 3.25251 155.236 3.52042 155.133 3.77081C155.029 4.02119 154.879 4.23402 154.688 4.40678C154.497 4.57955 154.273 4.69472 154.014 4.74981L155.42 7.04332H154.782L153.434 4.84996H151.739V7.04332H151.171ZM151.736 4.33167H153.608C153.835 4.33167 154.031 4.26657 154.198 4.13887C154.364 4.01117 154.495 3.84091 154.584 3.6331C154.676 3.42277 154.722 3.20244 154.722 2.96707C154.722 2.72671 154.669 2.50637 154.565 2.30105C154.461 2.09824 154.321 1.93299 154.145 1.8078C153.971 1.68261 153.775 1.62001 153.56 1.62001H151.736V4.33167Z" fill="black"/>
<path d="M159.406 1.09921H159.882L162.264 7.04082H161.667L160.95 5.18297H158.329L157.611 7.04082H157.005L159.406 1.09921ZM160.773 4.72477L159.64 1.78777L158.507 4.72477H160.773Z" fill="black"/>
<path d="M167.819 1.62001H165.776V7.04332H165.211V1.62001H163.167V1.09921H167.817V1.62001H167.819Z" fill="black"/>
<path d="M169.888 7.04332V1.09921H170.453V7.04082H169.888V7.04332Z" fill="black"/>
<path d="M173.666 2.18087V7.04332H173.101V1.09921H173.569L177.333 6.05431V1.10923H177.898V7.04332H177.374L173.666 2.18087Z" fill="black"/>
<path d="M182.848 7.08341C182.466 7.08341 182.111 6.99828 181.783 6.82802C181.454 6.65775 181.169 6.4274 180.927 6.13696C180.686 5.84651 180.497 5.52352 180.367 5.16547C180.234 4.80742 180.169 4.43935 180.169 4.06128C180.169 3.66066 180.234 3.27757 180.367 2.91953C180.5 2.55897 180.683 2.24099 180.92 1.96056C181.157 1.68263 181.437 1.46229 181.761 1.29954C182.085 1.13679 182.437 1.05667 182.819 1.05667C183.384 1.05667 183.846 1.17686 184.201 1.41722C184.556 1.65759 184.824 1.97057 185.007 2.35366L184.573 2.65412C184.389 2.28606 184.145 2.01564 183.838 1.84288C183.532 1.67011 183.188 1.58248 182.812 1.58248C182.493 1.58248 182.208 1.65258 181.952 1.7928C181.696 1.93301 181.476 2.1183 181.295 2.35366C181.111 2.58902 180.973 2.85192 180.879 3.14988C180.785 3.44533 180.739 3.7533 180.739 4.07129C180.739 4.40681 180.792 4.72229 180.901 5.02025C181.01 5.3182 181.162 5.58361 181.362 5.81647C181.56 6.04682 181.792 6.2296 182.053 6.3598C182.314 6.49 182.594 6.5576 182.896 6.5576C183.246 6.5576 183.577 6.46746 183.889 6.28468C184.201 6.10441 184.5 5.82398 184.785 5.44339V6.06184C184.234 6.74289 183.589 7.08341 182.848 7.08341ZM184.689 4.57456H183.413V4.12137H185.164V7.04335H184.689V4.57456Z" fill="black"/>
<path d="M113.131 12.7546L115.003 15.952L116.892 12.7546H117.506L115.286 16.4878V18.6962H114.721V16.4703L112.508 12.7546H113.131Z" fill="black"/>
<path d="M121.497 18.7387C121.094 18.7387 120.727 18.656 120.398 18.4883C120.07 18.3205 119.787 18.0927 119.55 17.8072C119.313 17.5193 119.13 17.1963 119.002 16.8358C118.874 16.4752 118.809 16.1071 118.809 15.7266C118.809 15.331 118.876 14.9529 119.012 14.5923C119.147 14.2318 119.335 13.9113 119.582 13.6309C119.826 13.3479 120.113 13.1251 120.442 12.9623C120.77 12.7971 121.125 12.7144 121.507 12.7144C121.91 12.7144 122.277 12.8021 122.606 12.9748C122.935 13.1476 123.215 13.3805 123.449 13.6684C123.683 13.9589 123.865 14.2818 123.995 14.6399C124.123 14.9979 124.188 15.3635 124.188 15.7366C124.188 16.1322 124.121 16.5103 123.985 16.8708C123.85 17.2314 123.662 17.5519 123.42 17.8323C123.179 18.1152 122.893 18.3356 122.565 18.4983C122.234 18.6586 121.879 18.7387 121.497 18.7387ZM119.374 15.7266C119.374 16.0496 119.425 16.3625 119.526 16.6605C119.628 16.9584 119.772 17.2239 119.963 17.4567C120.152 17.6871 120.376 17.8723 120.637 18.0101C120.898 18.1478 121.186 18.2154 121.497 18.2154C121.826 18.2154 122.12 18.1453 122.381 18.0025C122.642 17.8598 122.867 17.6695 123.05 17.4342C123.237 17.1963 123.377 16.9309 123.473 16.6355C123.57 16.34 123.618 16.0395 123.618 15.7316C123.618 15.4086 123.567 15.0981 123.464 14.8026C123.362 14.5072 123.215 14.2418 123.024 14.0064C122.833 13.7711 122.608 13.5883 122.35 13.4531C122.091 13.3204 121.806 13.2528 121.495 13.2528C121.171 13.2528 120.879 13.3229 120.618 13.4631C120.357 13.6033 120.132 13.7911 119.949 14.029C119.763 14.2668 119.62 14.5322 119.521 14.8277C119.425 15.1181 119.374 15.4186 119.374 15.7266Z" fill="black"/>
<path d="M128.797 18.7387C128.346 18.7387 127.964 18.6561 127.65 18.4884C127.338 18.3206 127.09 18.0953 126.906 17.8148C126.722 17.5319 126.59 17.2139 126.507 16.8559C126.423 16.4978 126.382 16.1298 126.382 15.7517V12.7546H126.94V15.7517C126.94 16.0596 126.971 16.3601 127.032 16.6556C127.094 16.951 127.193 17.2164 127.334 17.4518C127.474 17.6871 127.662 17.8724 127.899 18.0076C128.136 18.1453 128.433 18.2129 128.788 18.2129C129.155 18.2129 129.457 18.1428 129.696 18.0001C129.935 17.8574 130.124 17.6696 130.261 17.4342C130.399 17.1989 130.496 16.936 130.556 16.643C130.614 16.3501 130.645 16.0521 130.645 15.7517V12.7546H131.211V15.7517C131.211 16.1473 131.167 16.5279 131.083 16.8909C130.996 17.254 130.858 17.572 130.667 17.8449C130.476 18.1178 130.228 18.3356 129.921 18.4984C129.612 18.6586 129.24 18.7387 128.797 18.7387Z" fill="black"/>
<path d="M137.839 13.2729H135.795V18.6962H135.23V13.2729H133.187V12.7546H137.837V13.2729H137.839Z" fill="black"/>
<path d="M144.429 12.7546V18.6962H143.871V15.9169H140.472V18.6962H139.907V12.7546H140.472V15.3986H143.871V12.7546H144.429Z" fill="black"/>
<path d="M115.41 30.3942C115.007 30.3942 114.64 30.3116 114.311 30.1439C113.983 29.9761 113.7 29.7482 113.463 29.4628C113.227 29.1749 113.043 28.8519 112.915 28.4913C112.787 28.1308 112.722 27.7627 112.722 27.3821C112.722 26.9865 112.789 26.6084 112.925 26.2479C113.06 25.8873 113.248 25.5668 113.495 25.2864C113.739 25.0035 114.026 24.7806 114.355 24.6179C114.683 24.4526 115.038 24.37 115.42 24.37C115.823 24.37 116.191 24.4576 116.519 24.6304C116.848 24.8032 117.128 25.036 117.362 25.324C117.596 25.6144 117.778 25.9374 117.908 26.2954C118.036 26.6535 118.101 27.0191 118.101 27.3921C118.101 27.7877 118.034 28.1658 117.898 28.5264C117.763 28.8869 117.575 29.2074 117.333 29.4878C117.092 29.7708 116.807 29.9911 116.478 30.1539C116.147 30.3141 115.792 30.3942 115.41 30.3942ZM113.287 27.3821C113.287 27.7051 113.338 28.0181 113.439 28.316C113.541 28.614 113.686 28.8794 113.876 29.1123C114.065 29.3426 114.289 29.5279 114.55 29.6656C114.811 29.8033 115.099 29.8709 115.41 29.8709C115.739 29.8709 116.034 29.8008 116.294 29.6581C116.555 29.5154 116.78 29.3251 116.964 29.0897C117.15 28.8519 117.29 28.5865 117.386 28.291C117.483 27.9956 117.531 27.6951 117.531 27.3871C117.531 27.0641 117.48 26.7537 117.377 26.4582C117.275 26.1627 117.128 25.8973 116.937 25.662C116.746 25.4266 116.521 25.2438 116.263 25.1086C116.005 24.9759 115.719 24.9083 115.408 24.9083C115.084 24.9083 114.792 24.9784 114.531 25.1186C114.27 25.2589 114.045 25.4466 113.862 25.6845C113.676 25.9224 113.533 26.1878 113.434 26.4832C113.335 26.7737 113.287 27.0741 113.287 27.3821Z" fill="black"/>
<path d="M120.377 30.3515V24.4099H122.752C122.998 24.4099 123.227 24.4625 123.433 24.5701C123.64 24.6753 123.819 24.8205 123.969 25.0008C124.119 25.1811 124.237 25.3839 124.324 25.6042C124.411 25.8246 124.452 26.0499 124.452 26.2777C124.452 26.6007 124.385 26.9062 124.247 27.1941C124.109 27.4821 123.916 27.7149 123.669 27.8927C123.421 28.0705 123.131 28.1606 122.797 28.1606H120.94V30.354H120.377V30.3515ZM120.942 27.6398H122.776C123.003 27.6398 123.198 27.5747 123.365 27.447C123.532 27.3193 123.662 27.1516 123.752 26.9438C123.843 26.7385 123.889 26.5131 123.889 26.2752C123.889 26.0299 123.836 25.8045 123.727 25.5967C123.619 25.3914 123.479 25.2261 123.305 25.1059C123.131 24.9858 122.938 24.9257 122.727 24.9257H120.942V27.6398Z" fill="black"/>
<path d="M126.609 30.3515V24.4099H128.984C129.23 24.4099 129.46 24.4625 129.665 24.5701C129.873 24.6753 130.052 24.8205 130.201 25.0008C130.351 25.1811 130.47 25.3839 130.557 25.6042C130.644 25.8246 130.685 26.0499 130.685 26.2777C130.685 26.6007 130.617 26.9062 130.479 27.1941C130.342 27.4821 130.148 27.7149 129.902 27.8927C129.653 28.0705 129.363 28.1606 129.03 28.1606H127.172V30.354H126.609V30.3515ZM127.175 27.6398H129.008C129.235 27.6398 129.431 27.5747 129.598 27.447C129.764 27.3193 129.895 27.1516 129.984 26.9438C130.076 26.7385 130.122 26.5131 130.122 26.2752C130.122 26.0299 130.069 25.8045 129.96 25.5967C129.851 25.3914 129.711 25.2261 129.537 25.1059C129.363 24.9858 129.17 24.9257 128.96 24.9257H127.175V27.6398Z" fill="black"/>
<path d="M135.151 30.3942C134.747 30.3942 134.38 30.3116 134.051 30.1439C133.723 29.9761 133.44 29.7482 133.204 29.4628C132.967 29.1749 132.783 28.8519 132.655 28.4913C132.527 28.1308 132.462 27.7627 132.462 27.3821C132.462 26.9865 132.53 26.6084 132.665 26.2479C132.8 25.8873 132.989 25.5668 133.235 25.2864C133.479 25.0035 133.766 24.7806 134.095 24.6179C134.423 24.4526 134.779 24.37 135.16 24.37C135.564 24.37 135.931 24.4576 136.259 24.6304C136.588 24.8032 136.868 25.036 137.102 25.324C137.337 25.6144 137.518 25.9374 137.648 26.2954C137.776 26.6535 137.842 27.0191 137.842 27.3921C137.842 27.7877 137.774 28.1658 137.639 28.5264C137.503 28.8869 137.315 29.2074 137.073 29.4878C136.832 29.7708 136.547 29.9911 136.218 30.1539C135.89 30.3141 135.535 30.3942 135.151 30.3942ZM133.027 27.3821C133.027 27.7051 133.078 28.0181 133.179 28.316C133.281 28.614 133.426 28.8794 133.617 29.1123C133.805 29.3426 134.03 29.5279 134.291 29.6656C134.551 29.8033 134.839 29.8709 135.151 29.8709C135.479 29.8709 135.774 29.8008 136.035 29.6581C136.296 29.5154 136.52 29.3251 136.704 29.0897C136.89 28.8519 137.03 28.5865 137.127 28.291C137.223 27.9956 137.271 27.6951 137.271 27.3871C137.271 27.0641 137.221 26.7537 137.117 26.4582C137.015 26.1627 136.868 25.8973 136.677 25.662C136.486 25.4266 136.262 25.2438 136.003 25.1086C135.745 24.9759 135.46 24.9083 135.148 24.9083C134.824 24.9083 134.532 24.9784 134.271 25.1186C134.01 25.2589 133.786 25.4466 133.602 25.6845C133.416 25.9224 133.274 26.1878 133.175 26.4832C133.078 26.7737 133.027 27.0741 133.027 27.3821Z" fill="black"/>
<path d="M140.117 30.3515V24.4099H142.54C142.786 24.4099 143.014 24.4625 143.219 24.5701C143.424 24.6753 143.603 24.8205 143.755 25.0008C143.91 25.1811 144.028 25.3839 144.11 25.6042C144.195 25.8246 144.236 26.0499 144.236 26.2777C144.236 26.5632 144.183 26.8311 144.079 27.0815C143.975 27.3319 143.825 27.5447 143.634 27.7175C143.444 27.8902 143.219 28.0054 142.96 28.0605L144.366 30.354H143.729L142.381 28.1606H140.685V30.354H140.117V30.3515ZM140.682 27.6398H142.555C142.782 27.6398 142.977 27.5747 143.144 27.447C143.311 27.3193 143.441 27.1491 143.53 26.9413C143.622 26.7309 143.668 26.5106 143.668 26.2752C143.668 26.0349 143.615 25.8145 143.511 25.6092C143.407 25.4064 143.267 25.2412 143.091 25.116C142.917 24.9908 142.721 24.9282 142.506 24.9282H140.682V27.6398Z" fill="black"/>
<path d="M150.613 24.9282H148.57V30.3515H148.005V24.9282H145.961V24.4099H150.611V24.9282H150.613Z" fill="black"/>
<path d="M155.014 30.3941C154.563 30.3941 154.181 30.3114 153.867 30.1437C153.555 29.9759 153.306 29.7506 153.123 29.4701C152.939 29.1872 152.806 28.8692 152.724 28.5112C152.64 28.1531 152.599 27.7851 152.599 27.407V24.4099H153.157V27.407C153.157 27.7149 153.188 28.0154 153.248 28.3109C153.311 28.6063 153.41 28.8717 153.55 29.1071C153.691 29.3424 153.879 29.5277 154.116 29.6629C154.352 29.8006 154.65 29.8682 155.005 29.8682C155.372 29.8682 155.674 29.7981 155.913 29.6554C156.152 29.5127 156.34 29.3249 156.478 29.0896C156.616 28.8542 156.712 28.5913 156.773 28.2983C156.831 28.0054 156.862 27.7074 156.862 27.407V24.4099H157.428V27.407C157.428 27.8026 157.384 28.1832 157.299 28.5462C157.213 28.9093 157.075 29.2273 156.884 29.5002C156.693 29.7731 156.444 29.9909 156.138 30.1537C155.831 30.3139 155.456 30.3941 155.014 30.3941Z" fill="black"/>
<path d="M160.554 25.489V30.3515H159.988V24.4099H160.457L164.22 29.365V24.4174H164.786V30.3515H164.262L160.554 25.489Z" fill="black"/>
<path d="M167.434 30.3515V24.4099H167.999V30.3515H167.434Z" fill="black"/>
<path d="M174.717 24.9282H172.673V30.3515H172.108V24.9282H170.064V24.4099H174.715V24.9282H174.717Z" fill="black"/>
<path d="M176.782 30.3515V24.4099H177.347V30.3515H176.782Z" fill="black"/>
<path d="M183.848 29.8332V30.3515H179.997V24.4099H183.775V24.9282H180.562V27.0715H183.364V27.5647H180.562V29.8332H183.848Z" fill="black"/>
<path d="M189.445 25.5241C189.365 25.4289 189.271 25.3438 189.163 25.2687C189.054 25.1935 188.933 25.1284 188.8 25.0709C188.665 25.0158 188.522 24.9707 188.368 24.9382C188.213 24.9056 188.051 24.8881 187.88 24.8881C187.38 24.8881 187.013 24.9882 186.778 25.186C186.544 25.3838 186.428 25.6517 186.428 25.9923C186.428 26.2251 186.484 26.4104 186.595 26.5431C186.706 26.6758 186.88 26.786 187.117 26.8686C187.353 26.9512 187.655 27.0389 188.02 27.1265C188.428 27.2166 188.781 27.3218 189.078 27.4445C189.375 27.5672 189.602 27.7324 189.764 27.9428C189.926 28.1506 190.006 28.4335 190.006 28.7916C190.006 29.0645 189.955 29.3023 189.851 29.5026C189.75 29.703 189.607 29.8707 189.423 30.0034C189.24 30.1361 189.022 30.2363 188.769 30.2989C188.515 30.364 188.237 30.394 187.938 30.394C187.641 30.394 187.358 30.3615 187.085 30.2989C186.812 30.2338 186.556 30.1386 186.315 30.0134C186.073 29.8882 185.846 29.728 185.636 29.5327L185.918 29.0545C186.02 29.1671 186.143 29.2698 186.286 29.3674C186.428 29.4651 186.588 29.5527 186.761 29.6303C186.935 29.708 187.124 29.7681 187.327 29.8106C187.53 29.8532 187.737 29.8732 187.952 29.8732C188.409 29.8732 188.766 29.7881 189.022 29.6153C189.279 29.4426 189.407 29.1872 189.407 28.8466C189.407 28.6013 189.341 28.406 189.213 28.2582C189.085 28.1105 188.89 27.9903 188.631 27.8952C188.373 27.8 188.056 27.7074 187.679 27.6198C187.281 27.5246 186.945 27.4195 186.67 27.3018C186.394 27.1841 186.189 27.0314 186.051 26.8386C185.914 26.6458 185.846 26.3904 185.846 26.0749C185.846 25.7068 185.933 25.3964 186.109 25.1435C186.283 24.8906 186.525 24.6978 186.831 24.5676C187.138 24.4374 187.491 24.3723 187.89 24.3723C188.143 24.3723 188.377 24.3998 188.595 24.4524C188.812 24.505 189.015 24.5826 189.201 24.6828C189.387 24.7829 189.561 24.9081 189.723 25.0583L189.445 25.5241Z" fill="black"/>
<path d="M10.1699 0.453094L0 30.9999H6.97396L8.9717 24.1594H18.6729L20.6707 30.9999H27.6446L17.5158 0.453094H10.1699ZM13.8223 14.9753L10.3921 19.297L13.8223 7.55147L17.2525 19.297L13.8223 14.9753Z" fill="black"/>
<path d="M48.8369 13.9613L42.4861 0.453094H35.0967L45.4332 20.5013V30.9999H52.197V20.589L62.7002 0.453094H55.2697L48.8369 13.9613Z" fill="black"/>
<path d="M97.9178 9.89765C97.2245 8.04732 96.2365 6.37726 94.9489 4.88497C93.6638 3.39269 92.1275 2.21088 90.3447 1.33453C88.5596 0.460693 86.5739 0.022522 84.3878 0.022522C82.2572 0.022522 80.2932 0.438159 78.4936 1.26943C76.6939 2.10071 75.1383 3.24246 73.8242 4.68967C72.51 6.13939 71.4858 7.78191 70.7515 9.61722C70.0171 11.4525 69.6523 13.388 69.6523 15.4261C69.6523 17.4042 69.9978 19.3196 70.6911 21.1699C71.3819 23.0203 72.3724 24.6828 73.6599 26.1601C74.9474 27.6373 76.4814 28.8141 78.2665 29.688C80.0517 30.5643 82.0494 31 84.2646 31C86.3952 31 88.3542 30.5768 90.137 29.7305C91.9222 28.8842 93.4778 27.7375 94.8064 26.2878C96.135 24.8405 97.1568 23.198 97.8791 21.3627C98.599 19.5274 98.9589 17.5919 98.9589 15.5538C98.9565 13.6334 98.6111 11.7455 97.9178 9.89765ZM91.5477 18.7011C91.2289 19.8053 90.753 20.8019 90.1152 21.6907C89.4775 22.5796 88.6755 23.2907 87.7069 23.8215C86.7382 24.3523 85.6028 24.6177 84.3032 24.6177C83.0567 24.6177 81.9504 24.3598 80.9817 23.844C80.013 23.3282 79.2038 22.6397 78.554 21.7784C77.9042 20.917 77.4114 19.9355 77.0804 18.8313C76.7495 17.7271 76.5828 16.5879 76.5828 15.4111C76.5828 14.2643 76.7423 13.1376 77.0611 12.0334C77.38 10.9292 77.8631 9.94022 78.5129 9.06388C79.1627 8.19004 79.9647 7.49397 80.9213 6.97818C81.8755 6.46239 83.0036 6.20449 84.3032 6.20449C85.5207 6.20449 86.6126 6.44737 87.5812 6.93561C88.5499 7.42386 89.3664 8.10491 90.0307 8.97875C90.695 9.85509 91.1926 10.8366 91.526 11.9258C91.8569 13.0149 92.0236 14.1492 92.0236 15.3235C92.0236 16.4702 91.8642 17.597 91.5477 18.7011Z" fill="black"/>
<path d="M106.912 0H104.767V31H106.912V0Z" fill="black"/>
</svg>
