<svg width="211" height="33" viewBox="0 0 211 33" fill="none" xmlns="http://www.w3.org/2000/svg">
<g clip-path="url(#clip0)">
<path d="M127.57 1.17017H128.098L130.743 7.4951H130.081L129.284 5.51739H126.376L125.579 7.4951H124.906L127.57 1.17017ZM129.088 5.02963L127.83 1.90314L126.572 5.02963H129.088Z" fill="white"/>
<path d="M132.35 4.28058C132.35 3.8941 132.417 3.51562 132.551 3.14513C132.685 2.77464 132.881 2.43614 133.139 2.12962C133.396 1.8231 133.713 1.58056 134.088 1.39931C134.464 1.21806 134.893 1.12744 135.371 1.12744C135.939 1.12744 136.425 1.25538 136.827 1.51392C137.23 1.77246 137.528 2.10297 137.721 2.50811L137.227 2.81196C137.09 2.53209 136.916 2.31087 136.707 2.14828C136.497 1.98303 136.275 1.86575 136.039 1.79379C135.803 1.72182 135.569 1.68717 135.336 1.68717C134.952 1.68717 134.614 1.7618 134.322 1.91373C134.029 2.06565 133.783 2.26822 133.581 2.51877C133.38 2.77198 133.23 3.05451 133.128 3.36636C133.026 3.6782 132.975 3.99538 132.975 4.31523C132.975 4.66439 133.034 5.00023 133.155 5.32274C133.276 5.64259 133.442 5.92778 133.656 6.173C133.871 6.41821 134.123 6.61545 134.413 6.76204C134.703 6.90864 135.019 6.9806 135.36 6.9806C135.599 6.9806 135.843 6.93796 136.095 6.85533C136.347 6.7727 136.581 6.64477 136.798 6.47152C137.015 6.29827 137.189 6.07704 137.324 5.80251L137.844 6.06905C137.713 6.38356 137.509 6.6501 137.235 6.87132C136.959 7.08988 136.653 7.2578 136.315 7.36975C135.977 7.48169 135.647 7.54033 135.325 7.54033C134.888 7.54033 134.488 7.44704 134.123 7.26047C133.758 7.07389 133.442 6.82335 133.176 6.5115C132.911 6.19965 132.707 5.85049 132.562 5.46134C132.422 5.0722 132.35 4.67772 132.35 4.28058Z" fill="white"/>
<path d="M139.776 4.28058C139.776 3.8941 139.843 3.51562 139.977 3.14513C140.111 2.77464 140.307 2.43614 140.564 2.12962C140.822 1.8231 141.138 1.58055 141.514 1.39931C141.889 1.21806 142.319 1.12744 142.796 1.12744C143.365 1.12744 143.85 1.25538 144.253 1.51392C144.655 1.77246 144.953 2.10297 145.146 2.50811L144.653 2.81196C144.516 2.53209 144.341 2.31087 144.132 2.14828C143.923 1.98569 143.7 1.86842 143.464 1.79645C143.228 1.72449 142.995 1.68984 142.761 1.68984C142.378 1.68984 142.04 1.76447 141.747 1.91639C141.455 2.06832 141.208 2.27089 141.007 2.52143C140.806 2.77464 140.655 3.05717 140.554 3.36902C140.452 3.68087 140.401 3.99805 140.401 4.31789C140.401 4.66706 140.46 5.0029 140.58 5.32541C140.701 5.64525 140.867 5.93045 141.082 6.17566C141.297 6.42087 141.549 6.61811 141.839 6.76471C142.128 6.9113 142.445 6.98327 142.785 6.98327C143.024 6.98327 143.268 6.94062 143.521 6.858C143.773 6.77537 144.006 6.64743 144.223 6.47418C144.441 6.30093 144.615 6.07971 144.749 5.80517L145.27 6.07171C145.138 6.38622 144.934 6.65276 144.661 6.87399C144.384 7.09255 144.079 7.26047 143.741 7.37241C143.402 7.48436 143.073 7.543 142.751 7.543C142.313 7.543 141.914 7.44971 141.549 7.26313C141.184 7.07656 140.867 6.82601 140.602 6.51416C140.336 6.20231 140.132 5.85315 139.987 5.464C139.845 5.0722 139.776 4.67772 139.776 4.28058Z" fill="white"/>
<path d="M151.968 6.94337V7.4951H147.692V1.17017H151.888V1.7219H148.32V4.00346H151.432V4.5312H148.32V6.94603H151.968V6.94337Z" fill="white"/>
<path d="M154.498 7.49776V1.17017H155.126V6.94337H158.801V7.4951H154.498V7.49776Z" fill="white"/>
<path d="M165.346 6.94337V7.4951H161.07V1.17017H165.266V1.7219H161.698V4.00346H164.81V4.5312H161.698V6.94603H165.346V6.94337Z" fill="white"/>
<path d="M167.875 7.49776V1.17017H170.566C170.839 1.17017 171.092 1.22614 171.32 1.34075C171.548 1.4527 171.746 1.60729 171.915 1.79919C172.087 1.9911 172.218 2.207 172.309 2.44155C172.403 2.6761 172.449 2.91599 172.449 3.15854C172.449 3.46239 172.39 3.74758 172.275 4.01412C172.159 4.28066 171.993 4.50721 171.781 4.69113C171.569 4.87504 171.32 4.99764 171.033 5.05628L172.594 7.49776H171.886L170.389 5.1629H168.505V7.49776H167.875ZM168.503 4.61116H170.582C170.834 4.61116 171.051 4.54186 171.236 4.40593C171.421 4.27 171.566 4.08875 171.666 3.86753C171.768 3.64363 171.819 3.40908 171.819 3.15854C171.819 2.90266 171.759 2.66811 171.644 2.44955C171.529 2.23365 171.373 2.05774 171.177 1.92447C170.984 1.7912 170.767 1.72456 170.528 1.72456H168.503V4.61116Z" fill="white"/>
<path d="M177.02 1.17017H177.549L180.194 7.4951H179.531L178.734 5.51739H175.824L175.027 7.4951H174.354L177.02 1.17017ZM178.538 5.02963L177.28 1.90314L176.022 5.02963H178.538Z" fill="white"/>
<path d="M186.363 1.72456H184.094V7.49776H183.466V1.72456H181.197V1.17017H186.361V1.72456H186.363Z" fill="white"/>
<path d="M188.66 7.49776V1.17017H189.287V7.4951H188.66V7.49776Z" fill="white"/>
<path d="M192.855 2.32161V7.49776H192.227V1.17017H192.748L196.927 6.44494V1.18083H197.555V7.49776H196.973L192.855 2.32161Z" fill="white"/>
<path d="M203.052 7.54031C202.628 7.54031 202.233 7.44969 201.869 7.26844C201.504 7.0872 201.187 6.84198 200.919 6.5328C200.651 6.22362 200.441 5.87978 200.297 5.49864C200.149 5.11749 200.077 4.72568 200.077 4.32321C200.077 3.89675 200.149 3.48894 200.297 3.10779C200.444 2.72398 200.648 2.38548 200.911 2.08696C201.174 1.7911 201.485 1.55655 201.844 1.3833C202.204 1.21005 202.596 1.12476 203.019 1.12476C203.647 1.12476 204.16 1.25269 204.554 1.50857C204.948 1.76445 205.246 2.09762 205.45 2.50542L204.967 2.82527C204.763 2.43345 204.492 2.14559 204.152 1.96168C203.811 1.77777 203.43 1.68448 203.011 1.68448C202.657 1.68448 202.341 1.75912 202.056 1.90838C201.772 2.05764 201.528 2.25487 201.327 2.50542C201.123 2.75597 200.97 3.03583 200.865 3.35301C200.761 3.66752 200.71 3.99536 200.71 4.33387C200.71 4.69103 200.769 5.02686 200.889 5.34404C201.01 5.66122 201.179 5.94375 201.402 6.19163C201.622 6.43685 201.879 6.63142 202.169 6.77002C202.459 6.90862 202.77 6.98058 203.105 6.98058C203.494 6.98058 203.862 6.88463 204.208 6.69006C204.554 6.49815 204.887 6.19963 205.203 5.79449V6.45284C204.591 7.17782 203.875 7.54031 203.052 7.54031ZM205.096 4.86961H203.679V4.38717H205.624V7.49767H205.096V4.86961Z" fill="white"/>
<path d="M125.632 13.5774L127.711 16.9811L129.809 13.5774H130.49L128.025 17.5515V19.9023H127.397V17.5328L124.94 13.5774H125.632Z" fill="white"/>
<path d="M134.923 19.9476C134.475 19.9476 134.067 19.8596 133.702 19.681C133.337 19.5024 133.023 19.2599 132.76 18.956C132.498 18.6495 132.294 18.3057 132.151 17.9219C132.009 17.5381 131.937 17.1462 131.937 16.7411C131.937 16.32 132.012 15.9175 132.162 15.5337C132.312 15.1499 132.522 14.8087 132.795 14.5102C133.066 14.209 133.386 13.9718 133.75 13.7985C134.115 13.6226 134.51 13.5347 134.933 13.5347C135.381 13.5347 135.789 13.628 136.154 13.8119C136.519 13.9958 136.83 14.2437 137.09 14.5502C137.35 14.8594 137.552 15.2032 137.697 15.5843C137.839 15.9655 137.911 16.3546 137.911 16.7518C137.911 17.1729 137.836 17.5754 137.686 17.9592C137.536 18.343 137.326 18.6842 137.058 18.9827C136.79 19.2839 136.473 19.5184 136.108 19.6917C135.741 19.8623 135.347 19.9476 134.923 19.9476ZM132.565 16.7411C132.565 17.0849 132.621 17.4181 132.734 17.7353C132.846 18.0525 133.007 18.335 133.219 18.5829C133.428 18.8281 133.678 19.0253 133.968 19.1719C134.257 19.3185 134.577 19.3905 134.923 19.3905C135.288 19.3905 135.615 19.3159 135.905 19.1639C136.194 19.012 136.444 18.8094 136.648 18.5589C136.854 18.3057 137.01 18.0232 137.117 17.7086C137.224 17.3941 137.278 17.0743 137.278 16.7464C137.278 16.4026 137.222 16.0721 137.106 15.7576C136.994 15.4431 136.83 15.1605 136.618 14.91C136.406 14.6595 136.157 14.4649 135.87 14.321C135.583 14.1797 135.266 14.1077 134.92 14.1077C134.561 14.1077 134.236 14.1824 133.946 14.3316C133.656 14.4809 133.407 14.6808 133.203 14.934C132.997 15.1872 132.838 15.4697 132.728 15.7842C132.621 16.0934 132.565 16.4133 132.565 16.7411Z" fill="white"/>
<path d="M143.03 19.9476C142.528 19.9476 142.104 19.8597 141.755 19.6811C141.409 19.5025 141.133 19.2626 140.929 18.9641C140.725 18.6629 140.578 18.3244 140.486 17.9433C140.393 17.5621 140.347 17.1703 140.347 16.7678V13.5774H140.967V16.7678C140.967 17.0957 141.002 17.4155 141.069 17.73C141.138 18.0446 141.248 18.3271 141.404 18.5776C141.56 18.8282 141.769 19.0254 142.032 19.1693C142.295 19.3159 142.625 19.3879 143.019 19.3879C143.427 19.3879 143.762 19.3133 144.028 19.1614C144.293 19.0094 144.502 18.8095 144.655 18.559C144.808 18.3084 144.915 18.0286 144.983 17.7167C145.047 17.4049 145.082 17.0877 145.082 16.7678V13.5774H145.71V16.7678C145.71 17.189 145.661 17.5941 145.567 17.9806C145.471 18.3671 145.318 18.7056 145.106 18.9961C144.894 19.2866 144.618 19.5185 144.277 19.6918C143.934 19.8623 143.521 19.9476 143.03 19.9476Z" fill="white"/>
<path d="M153.071 14.1291H150.801V19.9023H150.173V14.1291H147.904V13.5774H153.068V14.1291H153.071Z" fill="white"/>
<path d="M160.389 13.5774V19.9023H159.769V16.9438H155.995V19.9023H155.367V13.5774H155.995V16.392H159.769V13.5774H160.389Z" fill="white"/>
<path d="M128.162 32.355C127.714 32.355 127.307 32.2671 126.942 32.0885C126.577 31.9099 126.263 31.6674 126 31.3635C125.737 31.057 125.533 30.7132 125.391 30.3294C125.249 29.9455 125.177 29.5537 125.177 29.1486C125.177 28.7275 125.252 28.325 125.402 27.9412C125.552 27.5574 125.761 27.2162 126.035 26.9177C126.306 26.6165 126.625 26.3793 126.99 26.206C127.355 26.0301 127.749 25.9421 128.173 25.9421C128.621 25.9421 129.029 26.0354 129.394 26.2193C129.759 26.4032 130.07 26.6511 130.33 26.9576C130.59 27.2668 130.791 27.6107 130.936 27.9918C131.078 28.373 131.151 28.7621 131.151 29.1593C131.151 29.5804 131.076 29.9829 130.926 30.3667C130.775 30.7505 130.566 31.0916 130.298 31.3902C130.03 31.6914 129.713 31.9259 129.348 32.0992C128.981 32.2697 128.586 32.355 128.162 32.355ZM125.804 29.1486C125.804 29.4924 125.861 29.8256 125.973 30.1428C126.086 30.46 126.247 30.7425 126.459 30.9904C126.668 31.2356 126.918 31.4328 127.207 31.5794C127.497 31.726 127.816 31.798 128.162 31.798C128.527 31.798 128.855 31.7233 129.144 31.5714C129.434 31.4195 129.684 31.2169 129.887 30.9664C130.094 30.7132 130.25 30.4306 130.357 30.1161C130.464 29.8016 130.518 29.4818 130.518 29.1539C130.518 28.8101 130.461 28.4796 130.346 28.1651C130.233 27.8505 130.07 27.568 129.858 27.3175C129.646 27.0669 129.396 26.8724 129.109 26.7284C128.822 26.5872 128.506 26.5152 128.16 26.5152C127.8 26.5152 127.476 26.5898 127.186 26.7391C126.896 26.8883 126.647 27.0883 126.443 27.3415C126.236 27.5947 126.078 27.8772 125.968 28.1917C125.858 28.5009 125.804 28.8207 125.804 29.1486Z" fill="white"/>
<path d="M133.678 32.3096V25.9846H136.315C136.589 25.9846 136.843 26.0406 137.071 26.1552C137.302 26.2671 137.501 26.4217 137.667 26.6136C137.833 26.8056 137.965 27.0215 138.061 27.256C138.158 27.4906 138.204 27.7304 138.204 27.973C138.204 28.3168 138.128 28.642 137.976 28.9485C137.823 29.255 137.608 29.5029 137.334 29.6922C137.058 29.8814 136.736 29.9774 136.366 29.9774H134.303V32.3122H133.678V32.3096ZM134.306 29.423H136.342C136.594 29.423 136.811 29.3537 136.996 29.2177C137.181 29.0818 137.326 28.9032 137.426 28.682C137.528 28.4634 137.578 28.2235 137.578 27.9703C137.578 27.7091 137.519 27.4692 137.399 27.248C137.278 27.0294 137.122 26.8535 136.929 26.7256C136.736 26.5977 136.522 26.5337 136.288 26.5337H134.306V29.423Z" fill="white"/>
<path d="M140.599 32.3096V25.9846H143.236C143.51 25.9846 143.765 26.0406 143.993 26.1552C144.223 26.2671 144.422 26.4217 144.588 26.6136C144.755 26.8056 144.886 27.0215 144.983 27.256C145.079 27.4906 145.125 27.7304 145.125 27.973C145.125 28.3168 145.05 28.642 144.897 28.9485C144.744 29.255 144.529 29.5029 144.256 29.6922C143.979 29.8814 143.657 29.9774 143.287 29.9774H141.224V32.3122H140.599V32.3096ZM141.227 29.423H143.263C143.515 29.423 143.732 29.3537 143.918 29.2177C144.103 29.0818 144.248 28.9032 144.347 28.682C144.449 28.4634 144.5 28.2235 144.5 27.9703C144.5 27.7091 144.441 27.4692 144.32 27.248C144.199 27.0294 144.044 26.8535 143.85 26.7256C143.657 26.5977 143.443 26.5337 143.209 26.5337H141.227V29.423Z" fill="white"/>
<path d="M150.085 32.355C149.637 32.355 149.229 32.2671 148.864 32.0885C148.499 31.9099 148.186 31.6674 147.923 31.3635C147.66 31.057 147.456 30.7132 147.314 30.3294C147.172 29.9455 147.099 29.5537 147.099 29.1486C147.099 28.7275 147.174 28.325 147.324 27.9412C147.475 27.5574 147.684 27.2162 147.958 26.9177C148.229 26.6165 148.548 26.3793 148.913 26.206C149.277 26.0301 149.672 25.9421 150.096 25.9421C150.544 25.9421 150.951 26.0354 151.316 26.2193C151.681 26.4032 151.992 26.6511 152.252 26.9576C152.513 27.2668 152.714 27.6107 152.859 27.9918C153.001 28.373 153.073 28.7621 153.073 29.1593C153.073 29.5804 152.998 29.9829 152.848 30.3667C152.698 30.7505 152.489 31.0916 152.22 31.3902C151.952 31.6914 151.635 31.9259 151.271 32.0992C150.906 32.2697 150.511 32.355 150.085 32.355ZM147.727 29.1486C147.727 29.4924 147.783 29.8256 147.896 30.1428C148.009 30.46 148.17 30.7425 148.381 30.9904C148.591 31.2356 148.84 31.4328 149.13 31.5794C149.42 31.726 149.739 31.798 150.085 31.798C150.45 31.798 150.777 31.7233 151.067 31.5714C151.356 31.4195 151.606 31.2169 151.81 30.9664C152.016 30.7132 152.172 30.4306 152.279 30.1161C152.387 29.8016 152.44 29.4818 152.44 29.1539C152.44 28.8101 152.384 28.4796 152.269 28.1651C152.156 27.8505 151.992 27.568 151.78 27.3175C151.568 27.0669 151.319 26.8724 151.032 26.7284C150.745 26.5872 150.428 26.5152 150.082 26.5152C149.723 26.5152 149.398 26.5898 149.108 26.7391C148.819 26.8883 148.569 27.0883 148.365 27.3415C148.159 27.5947 148.001 27.8772 147.891 28.1917C147.783 28.5009 147.727 28.8207 147.727 29.1486Z" fill="white"/>
<path d="M155.6 32.3096V25.9846H158.291C158.565 25.9846 158.817 26.0406 159.045 26.1552C159.273 26.2671 159.471 26.4217 159.64 26.6136C159.812 26.8056 159.944 27.0215 160.035 27.256C160.129 27.4906 160.174 27.7304 160.174 27.973C160.174 28.2768 160.115 28.562 160 28.8286C159.885 29.0951 159.718 29.3217 159.506 29.5056C159.294 29.6895 159.045 29.8121 158.758 29.8707L160.319 32.3122H159.611L158.114 29.9774H156.231V32.3122H155.6V32.3096ZM156.228 29.423H158.307C158.559 29.423 158.777 29.3537 158.962 29.2177C159.147 29.0818 159.292 28.9005 159.391 28.6793C159.493 28.4554 159.544 28.2209 159.544 27.9703C159.544 27.7144 159.485 27.4799 159.37 27.2613C159.254 27.0454 159.099 26.8695 158.903 26.7363C158.71 26.603 158.492 26.5364 158.254 26.5364H156.228V29.423Z" fill="white"/>
<path d="M167.256 26.5364H164.987V32.3096H164.359V26.5364H162.09V25.9846H167.254V26.5364H167.256Z" fill="white"/>
<path d="M172.143 32.3549C171.641 32.3549 171.218 32.2669 170.869 32.0883C170.523 31.9097 170.246 31.6699 170.043 31.3713C169.839 31.0702 169.691 30.7317 169.6 30.3505C169.506 29.9694 169.46 29.5775 169.46 29.1751V25.9846H170.08V29.1751C170.08 29.5029 170.115 29.8228 170.182 30.1373C170.252 30.4518 170.362 30.7343 170.517 30.9849C170.673 31.2354 170.882 31.4326 171.145 31.5766C171.408 31.7232 171.738 31.7951 172.132 31.7951C172.54 31.7951 172.875 31.7205 173.141 31.5686C173.407 31.4167 173.616 31.2167 173.769 30.9662C173.922 30.7157 174.029 30.4358 174.096 30.1239C174.16 29.8121 174.195 29.4949 174.195 29.1751V25.9846H174.823V29.1751C174.823 29.5962 174.775 30.0013 174.681 30.3878C174.584 30.7743 174.431 31.1128 174.219 31.4033C174.008 31.6939 173.731 31.9257 173.391 32.099C173.05 32.2696 172.634 32.3549 172.143 32.3549Z" fill="white"/>
<path d="M178.294 27.1334V32.3096H177.666V25.9846H178.187L182.366 31.2594V25.9926H182.994V32.3096H182.412L178.294 27.1334Z" fill="white"/>
<path d="M185.934 32.3096V25.9846H186.562V32.3096H185.934Z" fill="white"/>
<path d="M194.022 26.5364H191.753V32.3096H191.125V26.5364H188.855V25.9846H194.019V26.5364H194.022Z" fill="white"/>
<path d="M196.316 32.3096V25.9846H196.943V32.3096H196.316Z" fill="white"/>
<path d="M204.162 31.7578V32.3096H199.886V25.9846H204.082V26.5364H200.514V28.8179H203.626V29.343H200.514V31.7578H204.162Z" fill="white"/>
<path d="M210.378 27.1707C210.289 27.0694 210.185 26.9787 210.064 26.8988C209.943 26.8188 209.809 26.7495 209.661 26.6882C209.511 26.6296 209.353 26.5816 209.181 26.547C209.01 26.5123 208.83 26.4936 208.639 26.4936C208.084 26.4936 207.676 26.6003 207.416 26.8108C207.156 27.0214 207.027 27.3066 207.027 27.6691C207.027 27.917 207.089 28.1142 207.212 28.2555C207.336 28.3967 207.529 28.514 207.792 28.602C208.055 28.6899 208.39 28.7832 208.795 28.8765C209.248 28.9724 209.64 29.0844 209.97 29.215C210.3 29.3456 210.552 29.5215 210.732 29.7454C210.912 29.9666 211 30.2678 211 30.649C211 30.9395 210.944 31.1927 210.828 31.4059C210.716 31.6192 210.557 31.7977 210.354 31.939C210.15 32.0803 209.908 32.1869 209.627 32.2535C209.345 32.3228 209.036 32.3548 208.704 32.3548C208.374 32.3548 208.06 32.3202 207.757 32.2535C207.454 32.1842 207.169 32.0829 206.901 31.9497C206.633 31.8164 206.381 31.6458 206.147 31.4379L206.461 30.9288C206.574 31.0488 206.711 31.1581 206.869 31.262C207.027 31.366 207.204 31.4592 207.397 31.5419C207.59 31.6245 207.8 31.6885 208.025 31.7338C208.25 31.7791 208.481 31.8004 208.72 31.8004C209.227 31.8004 209.624 31.7098 209.908 31.5259C210.193 31.342 210.335 31.0701 210.335 30.7076C210.335 30.4464 210.262 30.2385 210.12 30.0812C209.978 29.924 209.761 29.796 209.474 29.6948C209.187 29.5935 208.835 29.4949 208.417 29.4016C207.974 29.3003 207.601 29.1883 207.295 29.0631C206.99 28.9378 206.762 28.7752 206.609 28.57C206.456 28.3647 206.381 28.0929 206.381 27.757C206.381 27.3652 206.477 27.0347 206.673 26.7655C206.866 26.4963 207.134 26.2911 207.475 26.1525C207.816 26.0139 208.207 25.9446 208.65 25.9446C208.932 25.9446 209.192 25.9739 209.433 26.0299C209.675 26.0858 209.9 26.1685 210.107 26.2751C210.313 26.3817 210.507 26.515 210.686 26.6749L210.378 27.1707Z" fill="white"/>
<path d="M11.2939 0.482178L0 32.9997H7.74477L9.96331 25.7179H20.7368L22.9553 32.9997H30.7001L19.4518 0.482178H11.2939ZM15.35 15.9413L11.5407 20.5418L15.35 8.03851L19.1594 20.5418L15.35 15.9413Z" fill="white"/>
<path d="M54.2348 14.8619L47.1822 0.482178H38.976L50.455 21.8238V32.9997H57.9664V21.9171L69.6305 0.482178H61.3787L54.2348 14.8619Z" fill="white"/>
<path d="M108.739 10.5362C107.969 8.56645 106.872 6.78865 105.442 5.20008C104.015 3.61152 102.308 2.35346 100.329 1.42058C98.3461 0.490366 96.141 0.0239258 93.7132 0.0239258C91.3471 0.0239258 89.1662 0.466378 87.1676 1.35128C85.169 2.23619 83.4414 3.4516 81.9821 4.99218C80.5227 6.53544 79.3853 8.28392 78.5698 10.2376C77.7542 12.1914 77.3492 14.2517 77.3492 16.4213C77.3492 18.527 77.7328 20.566 78.5027 22.5357C79.2699 24.5054 80.3698 26.2752 81.7996 27.8478C83.2295 29.4203 84.933 30.6731 86.9154 31.6033C88.8979 32.5362 91.1164 32.9999 93.5764 32.9999C95.9425 32.9999 98.1181 32.5495 100.098 31.6486C102.08 30.7477 103.808 29.527 105.283 27.9837C106.759 26.4431 107.894 24.6946 108.696 22.7409C109.495 20.7872 109.895 18.7269 109.895 16.5572C109.892 14.5129 109.509 12.5032 108.739 10.5362ZM101.665 19.9076C101.31 21.0831 100.782 22.1439 100.074 23.0901C99.3655 24.0363 98.4749 24.7933 97.3992 25.3583C96.3234 25.9234 95.0626 26.2059 93.6193 26.2059C92.2351 26.2059 91.0064 25.9314 89.9307 25.3823C88.855 24.8332 87.9563 24.1003 87.2347 23.1834C86.513 22.2665 85.9658 21.2217 85.5983 20.0462C85.2307 18.8708 85.0456 17.658 85.0456 16.4053C85.0456 15.1846 85.2227 13.9852 85.5768 12.8097C85.9309 11.6343 86.4674 10.5815 87.1891 9.64859C87.9107 8.71838 88.8013 7.9774 89.8636 7.42834C90.9233 6.87927 92.1761 6.60474 93.6193 6.60474C94.9714 6.60474 96.1839 6.86328 97.2597 7.38303C98.3354 7.90277 99.2421 8.62776 99.9799 9.55797C100.718 10.4909 101.27 11.5357 101.64 12.6951C102.008 13.8546 102.193 15.062 102.193 16.312C102.193 17.5328 102.016 18.7322 101.665 19.9076Z" fill="white"/>
<path d="M118.725 0H116.343V33H118.725V0Z" fill="white"/>
</g>
<defs>
<clipPath id="clip0">
<rect width="211" height="33" fill="white"/>
</clipPath>
</defs>
</svg>
